HIERARCHY
ROOT Hips
{
	OFFSET 0.0000 0.0000 0.0000
	CHANNELS 6 Xposition Yposition Zposition Zrotation Xrotation Yrotation
	JOINT Ab
	{
		OFFSET -0.0000 8.0846 -0.0000
		CHANNELS 3 Zrotation Xrotation Yrotation
		JOINT Chest
		{
			OFFSET -0.0000 25.0068 -0.0000
			CHANNELS 3 Zrotation Xrotation Yrotation
			JOINT Neck
			{
				OFFSET -0.0000 25.0068 0.0000
				CHANNELS 3 Zrotation Xrotation Yrotation
				JOINT Head
				{
					OFFSET -0.0000 10.7556 0.0000
					CHANNELS 3 Zrotation Xrotation Yrotation
					End Site
					{
						OFFSET -0.0000 16.6222 0.0000
					}
				}
			}
			JOINT LeftCollar
			{
				OFFSET -0.0000 25.0068 0.0000
				CHANNELS 3 Zrotation Xrotation Yrotation
				JOINT LeftShoulder
				{
					OFFSET 19.5556 -0.0000 0.0000
					CHANNELS 3 Zrotation Xrotation Yrotation
					JOINT LeftElbow
					{
						OFFSET 27.1828 0.0000 0.0000
						CHANNELS 3 Zrotation Xrotation Yrotation
						JOINT LeftWrist
						{
							OFFSET 23.3157 0.0000 0.0000
							CHANNELS 3 Zrotation Xrotation Yrotation
							End Site
							{
								OFFSET 0.0000 -14.6667 0.0000
							}
						}
					}
				}
			}
			JOINT RightCollar
			{
				OFFSET -0.0000 25.0068 0.0000
				CHANNELS 3 Zrotation Xrotation Yrotation
				JOINT RightShoulder
				{
					OFFSET -19.5556 0.0000 0.0000
					CHANNELS 3 Zrotation Xrotation Yrotation
					JOINT RightElbow
					{
						OFFSET -27.1828 0.0000 0.0000
						CHANNELS 3 Zrotation Xrotation Yrotation
						JOINT RightWrist
						{
							OFFSET -23.3157 0.0000 0.0000
							CHANNELS 3 Zrotation Xrotation Yrotation
							End Site
							{
								OFFSET -0.0000 -14.6667 0.0000
							}
						}
					}
				}
			}
		}
	}
	JOINT LeftHip
	{
		OFFSET 11.7333 0.0000 0.0000
		CHANNELS 3 Zrotation Xrotation Yrotation
		JOINT LeftKnee
		{
			OFFSET -0.0000 -40.8688 0.0000
			CHANNELS 3 Zrotation Xrotation Yrotation
			JOINT LeftAnkle
			{
				OFFSET -0.0000 -44.4337 0.0000
				CHANNELS 3 Zrotation Xrotation Yrotation
				End Site
				{
					OFFSET -0.0000 -4.8889 16.6222
				}
			}
		}
	}
	JOINT RightHip
	{
		OFFSET -11.7333 0.0000 0.0000
		CHANNELS 3 Zrotation Xrotation Yrotation
		JOINT RightKnee
		{
			OFFSET -0.0000 -40.8688 0.0000
			CHANNELS 3 Zrotation Xrotation Yrotation
			JOINT RightAnkle
			{
				OFFSET -0.0000 -44.4337 0.0000
				CHANNELS 3 Zrotation Xrotation Yrotation
				End Site
				{
					OFFSET -0.0000 -4.8889 16.6222
				}
			}
		}
	}
}
MOTION
Frames: 22
Frame Time: 0.010000
2.2060 85.1635 69.2309 0.9673 352.1850 187.1744 2.9107 8.0457 353.5426 4.5557 8.8219 353.3965 7.5738 344.9337 1.8812 354.0806 13.8629 1.6392 337.6078 358.0476 9.7699 337.7387 54.7098 317.2648 40.3067 347.8724 327.2248 85.0776 354.8549 11.4935 19.5267 358.6016 352.0147 63.4165 31.4986 356.3135 341.4336 355.3221 27.9658 281.0158 352.8128 25.5779 4.0520 6.1573 352.0225 359.1201 11.2342 355.2321 353.2987 341.9689 21.2924 359.4371 321.8131 5.6903 2.9570 34.3806 1.3389 354.4674 352.4590 337.3024 
2.3938 85.2544 68.7999 0.9663 352.1056 187.1574 2.9587 7.9789 353.5888 4.5165 8.8359 353.4466 7.5498 345.1220 1.8991 354.1436 13.8781 1.6612 337.6089 358.0551 9.8373 337.0870 54.5038 317.8121 40.0179 347.9531 327.1658 84.9676 354.7635 11.1430 19.5352 358.6113 352.1849 63.0183 32.0325 356.7499 341.3201 355.3003 27.9453 280.8722 352.9495 25.2242 4.1085 6.1472 352.2544 359.1424 11.4945 355.2122 353.2242 342.3286 21.2384 359.7024 321.9986 5.7086 2.8065 34.4409 1.5758 354.1615 352.1793 337.1486 
2.5714 85.3533 68.3645 0.9472 352.0293 187.1305 2.9763 7.8737 353.6432 4.4839 8.8528 353.5014 7.4958 345.2858 1.8883 354.2076 13.9304 1.6571 337.6820 358.0871 9.5836 334.8409 53.5175 319.8752 39.0839 348.1485 326.4216 85.0872 354.9090 10.0743 19.5435 358.6396 352.3375 62.6719 32.3370 357.1620 341.2346 355.2583 27.9556 280.7124 353.0790 25.0372 4.1426 6.1370 352.4391 359.1424 11.7706 355.3099 352.8839 342.6807 21.1383 359.9296 322.2152 5.7067 2.6347 34.4665 1.8588 353.9647 351.9335 337.0417 
2.7411 85.4589 67.9219 0.9193 351.9742 187.1053 2.9596 7.7455 353.7101 4.4845 8.8791 353.5627 7.4413 345.4028 1.8550 354.2024 14.0510 1.6420 337.6894 358.1284 9.4869 333.6703 53.1007 320.9155 38.5261 348.1376 326.1412 84.9939 354.9790 9.4416 19.5489 358.6677 352.4313 62.2804 32.4504 357.6204 341.1952 355.2534 27.9571 280.6843 353.0416 25.0052 4.1773 6.1294 352.5759 359.0883 12.0586 355.4573 352.5816 342.9011 21.1585 0.1142 322.4698 5.6846 2.5072 34.4561 2.0396 353.8858 351.6120 336.9800 
2.9054 85.5828 67.4978 0.9127 351.8784 187.1068 2.9645 7.5911 353.7753 4.4760 8.8326 353.6265 7.4183 345.4961 1.8266 354.1682 14.2068 1.6340 337.7238 358.1551 9.3293 332.1337 52.6012 322.3147 37.9039 348.1940 325.5735 85.2292 355.2790 8.9062 19.5569 358.6857 352.5020 61.9792 32.5960 358.0278 340.9702 355.1739 27.9629 280.8279 353.0483 24.8758 4.2197 6.0786 352.7967 359.1008 12.2240 355.4513 352.3758 343.0579 21.2665 0.2984 322.7059 5.6460 2.3737 34.3851 2.2330 353.7532 351.3881 336.9241 
3.0520 85.6943 67.1101 0.8989 351.8371 187.1339 2.9516 7.4542 353.8354 4.4804 8.8020 353.6828 7.4015 345.5623 1.7920 354.1606 14.3248 1.6140 337.7360 358.1541 9.2922 331.2448 52.5739 323.1408 37.6945 348.1373 325.2740 85.4333 355.4530 8.8627 19.5517 358.7043 352.5254 61.6966 32.6272 358.3872 340.8704 355.1481 28.0107 280.7446 353.1003 24.8078 4.2497 6.0950 353.0141 359.1354 12.3057 355.4418 351.8723 343.1382 21.2653 0.4446 322.9847 5.5876 2.2422 34.2864 2.4090 353.6001 351.2095 336.8594 
3.1614 85.7518 66.8959 0.8848 351.7962 187.1927 2.9055 7.2872 353.8844 4.4977 8.8014 353.7231 7.3733 345.5720 1.7449 354.1810 14.3781 1.5706 337.7323 358.1679 9.2848 330.8033 52.5297 323.5259 37.5162 348.0672 325.1312 85.4748 355.4873 8.6697 19.5347 358.6992 352.5080 61.5439 32.5224 358.5046 340.7662 355.1267 28.1029 280.7523 353.1731 24.7387 4.2931 6.1199 353.0624 359.1037 12.2047 355.6129 351.7439 343.5590 21.1470 0.4873 323.1607 5.6099 2.2508 34.1718 2.3919 353.5373 351.1293 336.8228 
3.3072 85.9047 66.4277 0.8499 351.7376 187.2138 2.8941 7.0965 353.9542 4.4534 8.7434 353.7926 7.3148 345.6717 1.6985 354.2455 14.3964 1.5331 337.7410 358.1608 9.3308 330.0093 52.5050 324.2664 37.1814 348.1218 325.1062 85.3126 355.4830 8.2956 19.5296 358.7163 352.5627 61.2871 32.6103 358.9684 340.5399 355.0550 28.1461 280.6102 353.1374 24.5370 4.2775 6.1053 353.3292 359.1440 12.0830 355.5979 351.5806 343.8606 21.1083 0.6451 323.5141 5.5347 2.0711 34.0254 2.7076 353.1645 350.9523 336.6577 
3.4919 86.1175 65.7792 0.7741 351.6823 187.1805 2.8021 6.8842 354.0423 4.4623 8.6785 353.8718 7.1731 345.8058 1.6527 354.3851 14.4101 1.5000 337.7708 358.1942 9.1745 327.8034 51.5442 326.3685 36.0201 348.5213 324.5468 85.3075 355.6303 7.2369 19.5167 358.7129 352.6877 60.9569 32.7808 359.6151 340.2540 354.9336 28.2370 280.3511 353.1099 24.2429 4.2272 6.0760 353.5896 359.1651 11.9535 355.6016 351.9881 344.2389 21.1912 0.8918 324.0276 5.5671 1.8380 33.8042 3.0796 352.6176 350.7363 336.4244 
3.6247 86.2977 65.3539 0.7598 351.4903 187.2126 2.7604 6.6423 354.1394 4.4423 8.5163 353.9683 7.0831 345.8972 1.5386 354.4122 14.3880 1.3881 337.7272 358.1859 9.2096 327.2923 51.5890 326.9170 35.5228 348.5793 324.7537 85.0496 355.4278 6.6546 19.5224 358.7367 352.6726 60.6764 32.9068 0.1888 339.9568 354.8370 28.3386 280.2031 353.1299 23.8019 4.1784 5.6864 353.9992 359.2914 11.9338 355.1933 351.6337 344.3787 21.0290 1.0393 324.2657 5.5648 1.6838 33.5961 3.3247 352.4282 350.5836 336.3194 
3.7443 86.4814 64.8775 0.6971 351.5332 187.2239 2.5701 6.5029 354.3006 4.5564 8.5926 354.1039 7.0748 345.8309 1.4263 354.3730 14.4095 1.2783 337.7233 358.2272 8.9125 325.5073 50.6049 328.6358 34.3780 348.9171 324.0566 85.1212 355.4988 5.7360 19.4567 358.7443 352.6552 60.4655 33.0429 0.8189 339.5757 354.7087 28.4835 280.0010 353.1316 23.3384 4.1247 5.6211 353.9950 359.2978 11.7052 355.2774 351.5768 344.5483 20.8785 1.1727 324.8365 5.6037 1.5383 33.2496 3.5715 352.2493 350.4332 336.1378 
3.8756 86.6739 64.4420 0.6262 351.4514 187.2390 2.4302 6.2999 354.4348 4.5578 8.5374 354.2278 7.0025 345.7785 1.2916 354.3912 14.4771 1.1468 337.6680 358.2310 8.9186 325.0018 50.5656 329.2313 33.8658 348.9723 324.0878 84.7979 355.5358 5.1057 19.4103 358.7509 352.6993 60.3990 33.1642 1.2539 339.1701 354.5695 28.6274 279.6010 353.0823 22.7006 4.0479 5.2884 353.9239 359.2422 11.6355 355.4030 351.6314 344.7531 20.8173 1.2703 325.2619 5.6634 1.4556 32.8894 3.5269 352.0089 350.2722 336.1121 
4.0020 86.8623 64.0017 0.5601 351.4585 187.3186 2.4346 6.1885 354.4830 4.4102 8.3976 354.2901 6.8011 345.8551 1.1035 354.5882 14.4581 0.9627 337.7194 358.2644 8.7694 323.6487 49.9933 330.6241 33.0698 349.1782 323.7404 84.5206 355.6520 4.2553 19.4665 358.7609 352.7417 60.1673 33.4027 1.6971 338.8240 354.4482 28.7391 279.1622 352.9305 21.8518 3.9970 4.9811 353.7717 359.1820 11.5971 355.3254 351.7620 345.0331 20.9590 1.3155 325.8301 5.6709 1.4164 32.4218 3.4478 351.8808 350.1058 336.0927 
4.1153 87.0450 63.5508 0.4741 351.5624 187.3613 2.4099 6.1394 354.5658 4.2637 8.3156 354.3845 6.6152 345.9380 0.9631 354.8143 14.4006 0.8235 337.7923 358.2820 8.6302 322.0760 49.2509 332.2414 32.2110 349.3841 323.2452 84.5152 355.6914 3.4851 19.4843 358.7589 352.8662 59.9906 33.6835 2.1237 338.3944 354.3063 28.8872 278.8465 352.7912 20.9802 3.9311 4.7685 353.6701 359.1244 11.5178 355.3664 351.5384 345.3096 20.9011 1.3474 326.5144 5.6435 1.3730 31.9355 3.4269 351.7256 349.9745 336.0687 
4.2092 87.2260 63.1285 0.3866 351.6313 187.3550 2.3590 6.0454 354.7053 4.1216 8.2938 354.5302 6.5093 345.9619 0.8352 354.9399 14.3448 0.6927 337.8966 358.3331 8.3711 320.1734 47.9312 334.1394 30.9521 349.7245 322.4572 84.4377 355.8150 2.0644 19.4799 358.7786 352.9920 59.7914 33.9136 2.6211 338.0625 354.1875 29.0766 278.4290 352.7404 20.1189 3.8169 4.4396 353.6487 359.0957 11.5263 355.3420 351.6833 345.5681 21.0557 1.3871 327.1298 5.5521 1.2702 31.4542 3.4017 351.7342 349.8276 336.1698 
4.2915 87.4043 62.7206 0.2981 351.6776 187.3148 2.3110 5.9173 354.8700 3.9626 8.2889 354.7015 6.3843 345.9654 0.6827 355.0533 14.3063 0.5370 337.9425 358.3837 8.2058 318.8514 46.9356 335.5087 29.8739 349.9631 321.9851 84.2763 355.8121 0.7292 19.4723 358.7987 353.0862 59.5463 34.1494 3.1661 337.7594 354.0723 29.3031 278.0283 352.6954 19.2451 3.6775 4.0393 353.7191 359.0977 11.5571 355.3592 351.5780 345.7180 21.0670 1.4245 327.7170 5.5190 1.1945 30.9509 3.4120 351.7371 349.6854 336.1997 
4.3725 87.5758 62.3098 0.2094 351.7411 187.2805 2.4682 5.8648 354.9122 3.5570 8.0973 354.7864 6.0349 346.1304 0.5316 355.4233 14.2395 0.3879 338.0371 358.4341 8.0670 317.4944 45.8561 336.9613 28.7049 350.2760 321.5981 84.3738 355.7913 359.3949 19.5733 358.8082 353.2567 59.3016 34.4249 3.5407 337.4791 353.9536 29.5587 277.6094 352.6242 18.3791 3.5481 3.6232 353.8266 359.1109 11.5978 355.3317 351.3061 345.7676 21.0121 1.4482 328.3445 5.5107 1.1423 30.4135 3.4623 351.6939 349.5874 336.1708 
4.4470 87.7380 61.8988 0.1108 351.8439 187.2400 2.5685 5.8731 355.0070 3.1865 7.8750 354.9193 5.7290 346.3156 0.4212 355.7438 14.1765 0.2806 338.1432 358.4613 7.9546 315.9557 44.4477 338.5537 27.3750 350.6575 321.0143 84.5516 355.8305 357.8410 19.6364 358.8423 353.4884 59.0663 34.8531 3.9194 337.1737 353.8285 29.7528 277.1868 352.5682 17.4481 3.4104 3.2500 353.8195 359.0841 11.5846 355.4796 351.1215 345.9480 20.9756 1.4553 329.0050 5.3453 1.0134 29.8829 3.7117 351.6444 349.4989 336.1162 
4.4993 87.8532 61.5801 0.0225 351.9799 187.2071 2.5768 5.9148 355.1450 2.9685 7.6918 355.0782 5.5720 346.4364 0.2960 355.8804 14.1675 0.1591 338.2395 358.4821 7.7615 314.6303 43.1858 339.8896 26.1745 350.9688 320.3652 84.8054 356.0461 356.4345 19.6612 358.8696 353.5337 58.8454 35.2781 4.2611 336.9089 353.7298 29.8388 276.8818 352.5456 16.7357 3.2993 3.0413 353.6944 359.0386 11.4900 355.7836 351.2644 346.1776 20.9054 1.4356 329.5692 5.1859 0.9254 29.4575 3.9565 351.5254 349.4251 336.0242 
4.5417 87.9496 61.3326 359.9546 352.0105 187.1849 2.6343 5.8086 355.2256 2.7076 7.6168 355.1788 5.3917 346.4650 0.1653 356.0759 14.1968 0.0296 338.2863 358.4910 7.7599 314.0435 42.7169 340.5815 25.5574 350.9846 320.1786 84.6878 356.3119 355.5255 19.6996 358.8842 353.5833 58.5755 35.5492 4.6326 336.7273 353.6514 29.9958 276.7983 352.6482 16.3318 3.1834 2.6616 353.7856 359.0549 11.5025 355.7279 351.5483 346.3633 20.9325 1.3824 329.9492 5.0464 0.8912 29.1254 4.1713 351.4519 349.4100 335.9374 
4.6303 88.1810 60.8089 359.7968 351.9471 187.0331 2.6480 5.5753 355.4318 2.2407 7.5734 355.4121 5.1231 346.4922 0.0389 356.3952 14.1889 359.9012 338.3820 358.4821 7.9673 313.0055 41.7186 341.8172 24.6146 351.3066 320.1394 84.3365 356.4658 354.2657 19.7519 358.9076 353.9173 57.7331 36.7452 5.9351 336.1970 353.4569 29.9615 276.1352 352.4485 14.8248 2.9318 1.6708 353.9753 359.0294 11.5412 355.7604 351.9600 346.7597 21.1435 1.3234 330.6755 4.9157 0.8168 28.3083 4.5797 351.4359 349.4013 335.7836 
4.6800 88.3024 60.4265 359.7028 352.0713 187.0015 2.6579 5.5145 355.5891 1.9628 7.5110 355.5881 4.9283 346.5645 359.8515 356.5344 14.1598 359.7093 338.4279 358.4801 7.8956 312.1593 40.8929 342.8760 23.7475 351.5846 319.9320 84.3868 356.5156 353.2667 19.7763 358.9199 353.9505 57.2805 37.3322 6.6260 335.7849 353.3383 29.9770 275.9161 352.1963 14.1060 2.7932 1.2191 354.0166 359.0270 11.5035 355.7415 351.6074 346.9096 21.1547 1.2491 331.3556 4.7815 0.8346 27.7281 4.6544 351.4885 349.3850 335.7612 
